<?xml version="1.0" standalone="no"?>
<!DOCTYPE svg PUBLIC "-//W3C//DTD SVG 20010904//EN"
 "http://www.w3.org/TR/2001/REC-SVG-20010904/DTD/svg10.dtd">
<svg version="1.0" xmlns="http://www.w3.org/2000/svg"
 width="500.000000pt" height="500.000000pt" viewBox="0 0 500.000000 500.000000"
 preserveAspectRatio="xMidYMid meet">
<metadata>
Created by potrace 1.14, written by Peter Selinger 2001-2017
</metadata>
<g transform="translate(0.000000,500.000000) scale(0.100000,-0.100000)"
fill="#000000" stroke="none">
<path d="M2170 3934 c-946 -84 -1710 -494 -1973 -1057 -58 -124 -80 -221 -84
-372 -4 -116 -1 -155 16 -227 149 -633 927 -1132 1951 -1250 153 -17 719 -18
855 0 548 71 973 214 1332 451 306 200 528 475 601 741 67 242 46 454 -68 686
-132 271 -402 520 -760 703 -256 131 -586 238 -885 285 -55 9 -113 19 -130 22
-16 3 -104 11 -195 19 -199 18 -463 17 -660 -1z m597 -94 c375 -31 732 -126
1015 -272 353 -181 594 -432 680 -708 19 -63 23 -97 23 -215 0 -127 -3 -148
-29 -227 -49 -152 -155 -311 -283 -428 -293 -268 -744 -457 -1238 -520 -49 -6
-101 -13 -115 -16 -75 -12 -403 -15 -533 -5 -403 31 -736 116 -1036 265 -394
195 -644 468 -712 778 -77 346 109 704 501 965 319 212 766 352 1240 386 108
8 369 6 487 -3z"/>
<path d="M2473 3566 c-264 -64 -399 -316 -338 -633 32 -165 90 -237 340 -418
154 -111 199 -159 250 -261 29 -57 35 -82 35 -132 0 -103 -44 -162 -122 -162
-44 0 -73 21 -101 73 -20 39 -22 55 -22 207 l0 165 -198 3 -197 2 0 -115 c0
-259 58 -413 191 -511 153 -112 439 -127 602 -30 99 58 173 153 209 270 32 99
31 326 0 429 -44 145 -100 207 -321 356 -205 139 -278 228 -288 356 -9 105 36
165 123 165 45 0 97 -48 113 -105 6 -22 11 -102 11 -177 l0 -138 196 0 197 0
-6 148 c-4 110 -11 163 -26 212 -52 161 -177 267 -355 301 -68 13 -230 10
-293 -5z"/>
<path d="M3163 3484 c113 -226 166 -402 194 -644 14 -126 15 -163 4 -288 -23
-261 -90 -504 -201 -734 -17 -34 -30 -63 -30 -65 0 -16 205 31 345 78 125 43
263 109 359 173 92 61 214 168 198 174 -5 1 -50 -10 -99 -27 -127 -43 -293
-74 -293 -56 0 3 13 29 30 58 59 106 104 254 116 387 l7 70 191 2 191 3 0 110
0 110 -207 3 c-197 2 -208 3 -208 21 0 33 -60 192 -106 281 -23 46 -41 86 -40
88 2 2 39 -4 82 -12 85 -16 207 -55 293 -92 30 -14 56 -22 58 -20 14 13 -237
189 -378 265 -140 76 -371 158 -494 176 l-47 7 35 -68z"/>
<path d="M1815 3524 c-11 -3 -47 -12 -80 -20 -73 -18 -154 -57 -300 -142 -300
-177 -477 -354 -546 -548 -28 -79 -30 -235 -4 -314 73 -222 253 -408 565 -587
332 -191 458 -222 534 -133 51 61 54 152 14 395 -16 99 -22 661 -8 825 6 80
15 187 19 237 13 158 -8 240 -70 270 -30 15 -96 23 -124 17z m-187 -287 c15
-31 11 -60 -28 -217 -69 -277 -67 -651 4 -834 33 -82 39 -117 27 -149 -13 -34
-55 -36 -92 -4 -59 51 -139 180 -178 287 -45 124 -55 181 -54 325 0 120 3 154
26 238 34 126 79 232 125 298 62 87 143 114 170 56z"/>
</g>
</svg>
